<svg>

<g transform="translate(0.000000,313.000000) scale(0.100000,-0.100000)" stroke="none">
<path d="M1495 2753 c-96 -21 -195 -48 -225 -61 -19 -8 -44 -18 -55 -22 -136
-51 -287 -147 -412 -262 -183 -167 -303 -363 -393 -643 -42 -128 -54 -444 -25
-600 20 -103 62 -232 101 -307 8 -14 14 -31 14 -37 0 -19 112 -193 171 -266
64 -79 169 -182 214 -211 17 -10 32 -21 35 -25 14 -16 159 -104 208 -126 32
-14 75 -33 97 -42 49 -22 156 -54 255 -77 103 -24 383 -24 490 1 77 17 160 40
195 55 190 78 195 80 330 169 123 81 296 262 382 401 40 64 105 203 134 288
53 153 64 228 64 427 0 205 -7 248 -66 423 -59 173 -114 273 -229 421 -132
171 -366 344 -558 413 -230 83 -262 88 -507 87 -110 -1 -209 -3 -220 -6z m410
-48 c50 -7 122 -23 160 -35 39 -12 81 -24 95 -27 41 -9 185 -78 243 -117 30
-20 57 -36 61 -36 14 0 204 -170 237 -212 18 -24 48 -60 66 -81 19 -21 38 -48
44 -60 5 -12 18 -35 29 -52 110 -168 190 -453 190 -674 0 -229 -78 -497 -203
-692 -119 -187 -224 -292 -417 -415 -204 -131 -508 -213 -736 -200 -231 13
-521 106 -661 212 -17 13 -36 24 -40 24 -16 0 -195 167 -256 237 -89 105 -183
272 -226 403 -100 307 -102 505 -6 850 13 49 69 167 125 270 57 102 282 343
355 380 17 8 35 19 40 23 73 59 233 129 405 178 134 37 346 48 495 24z"/>
<path d="M1560 2665 c-103 -14 -219 -39 -247 -54 -10 -5 -43 -19 -74 -31 -68
-26 -242 -125 -284 -162 -16 -14 -50 -41 -74 -60 -76 -57 -215 -240 -281 -368
-111 -218 -135 -324 -134 -585 2 -252 19 -329 119 -540 62 -130 107 -197 199
-300 154 -172 409 -328 606 -372 204 -46 355 -54 521 -28 123 19 240 49 287
74 12 6 30 15 40 19 64 32 168 87 172 92 3 4 27 21 54 40 72 48 257 237 297
301 19 30 40 64 47 75 26 41 98 191 110 229 47 160 67 280 67 410 0 343 -126
651 -364 892 -216 219 -460 336 -776 373 -109 12 -161 11 -285 -5z m425 -64
c378 -93 675 -329 832 -661 71 -150 99 -253 113 -408 11 -125 1 -312 -21 -394
-22 -84 -49 -160 -83 -232 -20 -42 -36 -78 -36 -81 0 -3 -28 -45 -61 -95 -192
-280 -500 -475 -829 -521 -119 -17 -379 -6 -475 21 -114 31 -276 104 -375 169
-80 52 -249 209 -297 276 -12 17 -33 46 -47 65 -36 50 -110 203 -135 279 -49
151 -61 226 -61 392 0 201 28 337 104 504 14 30 26 58 26 61 0 3 24 43 54 87
60 91 195 250 227 268 11 6 37 25 57 43 124 109 393 224 577 246 112 14 339 4
430 -19z"/>
<path d="M1227 2254 c-3 -3 4 -23 17 -43 38 -61 57 -148 44 -199 -6 -24 -14
-40 -18 -35 -4 4 -25 51 -45 103 -49 123 -63 150 -79 150 -45 0 -155 -100
-195 -178 l-21 -42 40 -25 c44 -28 50 -36 20 -28 -11 3 -31 2 -46 -1 l-26 -7
4 -128 c3 -127 3 -130 34 -168 48 -59 109 -96 169 -101 41 -3 63 2 115 26 113
52 116 59 19 58 -97 -1 -132 12 -166 63 -28 41 -32 128 -8 165 24 36 86 59
143 54 66 -6 126 -37 130 -65 4 -26 6 -27 35 -12 42 21 98 95 152 200 60 118
60 112 -10 151 -87 47 -283 87 -308 62z"/>
<path d="M1975 2231 c-108 -37 -168 -75 -156 -99 5 -9 24 -46 42 -82 67 -134
120 -199 176 -215 18 -5 22 -1 25 22 2 22 11 31 48 45 136 52 253 -16 235
-137 -14 -92 -70 -129 -191 -129 -82 0 -82 0 -58 -19 38 -29 140 -67 181 -67
66 1 152 55 186 115 35 64 50 243 24 279 -10 14 -23 17 -50 14 -20 -2 -37 -3
-37 -1 0 1 18 14 39 27 48 31 47 40 -22 131 -48 63 -116 115 -151 115 -15 0
-31 -30 -69 -130 -47 -122 -60 -139 -71 -97 -15 55 3 142 42 207 12 18 19 37
16 42 -12 18 -130 7 -209 -21z"/>
<path d="M1615 2112 c-14 -59 -60 -159 -93 -205 -42 -58 -95 -94 -163 -110
-44 -11 -49 -14 -49 -40 0 -36 35 -54 78 -39 27 9 31 8 36 -11 3 -12 6 -34 6
-49 0 -41 46 -160 69 -178 10 -8 25 -34 32 -58 7 -24 21 -49 30 -56 10 -7 22
-30 27 -52 16 -65 40 -110 72 -138 39 -33 51 -33 90 0 36 31 64 83 75 139 3
21 15 45 24 51 10 7 24 31 31 54 8 23 25 54 40 70 28 30 55 107 65 187 6 49 8
52 27 42 11 -6 35 -8 54 -4 31 5 34 9 34 40 0 27 -4 35 -18 35 -48 0 -112 33
-160 83 -53 56 -87 116 -117 209 -16 48 -21 55 -36 47 -25 -13 -101 -14 -126
-1 -19 10 -22 8 -28 -16z m-69 -443 l7 -34 -27 24 c-20 19 -26 34 -26 65 l0
41 20 -31 c11 -17 23 -46 26 -65z m374 74 c-1 -26 -37 -103 -50 -103 -15 0
-13 15 11 71 22 49 39 64 39 32z m-250 -537 c0 -5 -9 -1 -20 9 -11 10 -20 30
-20 44 1 25 2 25 20 -9 11 -19 19 -39 20 -44z m120 58 c0 -12 -34 -64 -42 -64
-11 0 -10 7 7 40 14 26 35 41 35 24z"/>
<path d="M1490 1355 c0 -46 -36 -131 -89 -209 -29 -43 -59 -80 -67 -83 -19 -7
-18 -26 6 -114 42 -159 76 -238 144 -334 l36 -50 0 32 c0 17 5 35 10 38 6 3
10 -1 10 -10 0 -8 4 -23 9 -33 5 -9 19 -37 30 -62 28 -59 91 -151 114 -164 16
-9 25 -4 58 34 33 38 60 86 127 230 11 23 12 22 9 -17 -1 -24 0 -43 3 -43 12
0 41 43 85 125 63 119 89 191 105 293 10 60 9 63 -15 90 -73 77 -145 215 -145
278 0 39 -15 21 -40 -47 -39 -108 -106 -197 -161 -214 -27 -9 -78 23 -112 70
-39 56 -83 144 -92 183 -8 38 -25 43 -25 7z"/>
</g>
</svg>
